<?xml version="1.0" standalone="no"?>
<!DOCTYPE svg PUBLIC "-//W3C//DTD SVG 20010904//EN"
 "http://www.w3.org/TR/2001/REC-SVG-20010904/DTD/svg10.dtd">
<svg version="1.0" xmlns="http://www.w3.org/2000/svg"
 width="555.000000pt" height="746.000000pt" viewBox="0 0 555.000000 746.000000"
 preserveAspectRatio="xMidYMid meet">

<g transform="translate(0.000000,746.000000) scale(0.100000,-0.100000)"
fill="#000000" stroke="none">
<path d="M3110 7190 c-96 -4 -200 -12 -230 -18 -30 -6 -109 -21 -175 -32 -201
-35 -293 -70 -458 -172 -43 -26 -81 -48 -83 -48 -10 0 -144 -93 -209 -146 -38
-31 -86 -67 -107 -80 -52 -33 -217 -219 -285 -321 -125 -188 -169 -312 -157
-443 l6 -66 -68 -49 c-38 -28 -88 -63 -111 -78 -38 -26 -130 -118 -178 -178
-11 -13 -43 -51 -71 -84 -70 -82 -121 -163 -186 -297 -106 -217 -153 -393
-163 -608 -6 -133 -5 -155 19 -265 41 -191 59 -252 84 -277 12 -14 22 -34 22
-45 0 -11 7 -26 16 -34 25 -21 84 -115 84 -134 0 -10 -21 -40 -46 -67 -53 -56
-71 -95 -75 -158 -1 -25 -8 -55 -15 -67 -11 -18 -11 -22 1 -27 8 -3 24 -24 36
-48 12 -24 33 -56 46 -72 13 -16 22 -34 20 -41 -7 -16 49 -7 64 11 16 19 27
17 34 -6 3 -11 13 -20 22 -20 8 0 33 -15 55 -34 28 -24 69 -44 136 -65 112
-34 118 -35 329 -61 173 -21 344 -60 383 -89 14 -10 29 -34 34 -54 9 -34 6
-40 -43 -103 -29 -38 -93 -103 -144 -145 -85 -72 -99 -80 -203 -114 -100 -33
-119 -36 -176 -30 -75 8 -133 24 -210 59 -144 64 -361 88 -460 49 -57 -21
-105 -58 -114 -85 -4 -13 -17 -36 -30 -51 -13 -15 -26 -44 -30 -65 -4 -20 -13
-46 -20 -57 -40 -58 26 -203 131 -290 44 -36 150 -95 171 -95 5 0 32 -11 60
-24 144 -70 602 -99 892 -57 74 11 140 17 147 14 8 -2 24 -35 36 -71 36 -110
73 -184 123 -245 51 -63 51 -58 -3 -140 -15 -23 -36 -62 -45 -86 -37 -94 -29
-291 14 -336 11 -12 20 -28 20 -36 0 -17 -45 -61 -73 -72 -19 -7 -22 -23 -6
-33 6 -3 -2 -14 -20 -25 -38 -23 -45 -24 -37 -4 7 19 -4 19 -32 -1 -22 -15
-22 -16 -5 -45 10 -16 36 -44 58 -62 69 -56 151 -40 293 56 l44 29 56 -25
c121 -54 339 -61 482 -14 107 34 207 84 262 129 l47 39 27 -53 c26 -51 27 -57
21 -167 -6 -121 -10 -130 -62 -149 -16 -6 -77 -30 -135 -52 -166 -66 -238 -90
-345 -115 -55 -13 -88 -24 -73 -24 19 -1 32 -9 42 -28 19 -37 64 -79 99 -92
16 -6 50 -11 76 -11 28 0 69 -9 97 -22 91 -41 189 -22 256 49 49 52 58 103 36
218 -10 57 -9 66 9 96 11 19 26 70 33 114 13 92 2 141 -52 221 -36 54 -31 75
26 119 40 30 75 30 91 0 5 -11 20 -37 33 -56 12 -20 22 -49 22 -64 0 -37 57
-106 128 -153 60 -40 158 -76 201 -73 82 5 262 -7 274 -18 4 -4 39 3 77 16
l70 24 28 -21 c22 -17 36 -20 69 -14 78 12 130 61 153 144 5 20 24 49 41 65
44 42 107 141 115 180 4 23 26 52 71 96 36 35 82 84 102 108 l36 44 7 -34 c17
-75 -21 -239 -83 -362 -85 -168 -197 -321 -283 -384 -86 -64 -118 -76 -197
-71 -81 4 -125 33 -162 107 -26 53 -37 56 -37 9 0 -21 12 -40 43 -69 58 -55
91 -71 163 -77 55 -4 68 -1 124 29 89 47 151 107 237 228 154 218 215 368 217
533 1 60 5 97 11 95 5 -2 22 -27 37 -56 36 -70 37 -133 3 -198 -14 -27 -49
-100 -79 -163 -29 -63 -74 -144 -99 -180 -26 -36 -55 -81 -66 -100 -31 -57
-210 -234 -261 -258 l-45 -22 48 0 c26 0 47 -4 47 -10 0 -5 7 -10 15 -10 16 0
21 15 8 23 -5 2 -1 2 7 0 8 -3 27 -7 43 -10 15 -3 27 -12 27 -21 0 -12 10 -14
57 -9 31 3 63 13 72 21 10 11 11 16 3 16 -23 0 -12 16 23 32 35 16 45 12 23
-10 -7 -7 -8 -12 -2 -12 6 0 23 14 39 30 26 28 28 33 18 60 -6 17 -7 30 -2 30
5 0 9 -6 10 -12 1 -15 17 21 18 40 1 19 -17 14 -22 -5 -3 -11 -5 -7 -6 10 -1
17 3 26 9 22 6 -3 10 4 10 16 0 18 -2 19 -15 9 -12 -10 -15 -10 -15 4 0 9 5
16 10 16 16 0 11 33 -10 68 -25 40 -25 53 -1 79 14 14 38 22 86 27 70 7 128
30 157 62 25 30 48 93 48 136 0 49 -17 82 -69 133 -32 30 -41 47 -41 72 0 45
-35 134 -70 178 l-29 37 20 51 c58 143 81 226 89 318 4 53 16 113 25 133 18
39 15 99 -10 187 -11 40 -11 49 1 61 13 13 12 22 -6 70 -11 31 -39 85 -62 119
-25 39 -41 73 -39 87 6 49 -120 143 -221 166 -62 14 -194 57 -233 75 -24 12
-138 42 -290 77 -118 27 -161 50 -220 116 -61 67 -51 81 100 143 160 66 327
88 490 64 181 -26 220 -29 252 -18 40 13 69 52 78 104 4 22 14 56 23 75 16 36
20 111 8 174 -8 40 -68 116 -121 152 -126 85 -271 114 -572 115 -216 0 -222
-1 -449 -57 -42 -10 -73 -12 -95 -7 l-33 9 35 32 c19 18 62 55 97 83 34 27 73
67 86 87 138 220 144 231 172 321 20 60 24 95 24 193 0 100 3 120 16 125 14 5
15 16 10 65 -8 76 -37 133 -94 185 -44 38 -46 43 -34 64 12 18 12 23 0 30 -7
5 -21 9 -31 9 -32 0 -124 99 -173 184 -106 185 -161 274 -197 323 -52 70 -188
186 -269 228 -37 20 -70 40 -74 46 -19 32 54 54 456 138 198 41 322 78 410
121 30 15 73 33 95 40 66 21 269 131 350 190 49 35 98 82 136 132 33 42 70 85
82 95 33 26 94 124 160 254 46 92 60 130 71 200 24 159 3 214 -99 266 -47 24
-56 25 -151 20 -196 -12 -497 -72 -618 -122 -19 -8 -42 -15 -50 -15 -9 0 -48
-16 -89 -35 -41 -19 -77 -35 -81 -35 -5 0 -65 -31 -134 -69 -70 -37 -138 -72
-151 -76 -24 -7 -24 -7 -17 52 3 32 15 88 26 123 11 36 19 88 19 115 l-1 50
-8 -45 c-11 -59 -87 -289 -106 -318 -8 -12 -47 -43 -87 -69 -295 -188 -624
-462 -737 -614 -81 -108 -130 -230 -86 -216 15 5 92 104 118 152 74 140 598
565 855 694 34 17 94 52 134 77 156 101 411 204 602 244 55 11 102 22 107 25
21 13 222 35 317 35 116 0 145 -10 181 -61 22 -32 21 -144 -2 -224 -31 -105
-113 -248 -221 -387 -142 -183 -228 -253 -421 -344 -60 -29 -134 -62 -164 -74
-30 -12 -84 -35 -120 -50 -87 -36 -198 -65 -349 -90 -221 -36 -540 -120 -598
-156 -34 -21 -29 -37 10 -30 45 8 222 -60 309 -120 118 -80 267 -268 351 -443
32 -67 58 -103 116 -161 43 -43 74 -82 72 -92 -1 -10 21 -35 58 -65 65 -51 85
-83 96 -152 7 -41 6 -43 -14 -36 -35 11 -41 -3 -20 -50 17 -38 19 -57 13 -137
-11 -150 -51 -247 -181 -435 -74 -107 -107 -136 -263 -228 -259 -154 -390
-248 -390 -281 0 -17 9 -13 179 65 190 88 394 140 715 182 52 6 161 9 265 7
165 -4 182 -7 273 -37 81 -26 106 -40 153 -83 53 -48 113 -133 102 -144 -2 -3
-20 4 -38 15 -38 23 -83 28 -77 9 3 -7 14 -18 25 -23 52 -26 96 -83 83 -106
-8 -12 -16 -10 -54 11 -55 30 -72 18 -29 -20 17 -16 36 -38 43 -49 14 -28 3
-85 -22 -108 -23 -20 -29 -20 -293 0 -181 15 -194 15 -287 -4 -143 -28 -399
-144 -447 -202 -19 -24 7 -32 53 -17 34 11 35 10 88 -46 71 -76 152 -113 364
-164 93 -22 205 -49 249 -60 44 -11 98 -22 120 -26 23 -3 70 -26 110 -53 57
-37 70 -51 67 -70 -1 -15 13 -40 46 -77 26 -29 58 -72 71 -94 l22 -40 -21 0
c-32 0 -35 -27 -7 -69 49 -74 61 -130 54 -260 -4 -64 -16 -150 -27 -191 -11
-41 -20 -94 -20 -116 0 -57 -69 -193 -125 -247 -60 -58 -195 -236 -195 -257 0
-28 -75 -132 -122 -170 -116 -94 -219 -147 -350 -181 -104 -26 -166 -21 -251
21 -57 28 -63 29 -74 14 -14 -20 -48 -15 -122 16 -36 16 -59 36 -93 83 -67 91
-113 180 -149 287 -28 85 -31 104 -26 175 3 50 18 121 40 190 19 61 37 124 41
140 7 30 7 30 -12 10 -11 -11 -41 -69 -68 -130 -45 -105 -48 -115 -48 -203
l-1 -93 -35 -9 c-132 -35 -300 -36 -460 0 -93 20 -271 80 -335 112 -71 36
-225 159 -271 217 -117 146 -193 393 -180 588 3 55 2 93 -4 93 -10 0 -30 -63
-30 -93 0 -10 -4 -15 -10 -12 -37 23 20 463 71 556 8 15 13 60 14 117 0 91 0
93 23 87 12 -3 22 -2 22 3 0 18 -47 50 -103 71 -78 28 -281 68 -414 81 -182
17 -378 76 -461 137 -46 34 -49 48 -15 77 21 19 25 27 17 36 -14 14 -90 -16
-113 -43 -27 -34 -48 -13 -66 64 -6 24 -3 26 42 35 69 13 66 38 -6 42 l-54 3
6 58 c6 69 36 132 77 163 35 25 38 46 11 79 -18 24 -51 83 -51 94 0 3 15 5 33
5 28 0 35 -6 57 -46 31 -59 65 -74 157 -71 l68 2 3 -55 c4 -81 28 -155 61
-187 56 -57 167 -70 239 -28 l42 24 43 -19 c65 -29 177 -52 214 -45 35 6 88
66 99 112 4 14 22 32 43 42 20 11 68 46 107 79 66 55 76 60 135 67 61 6 149
39 149 54 0 5 -26 1 -57 -7 -52 -13 -67 -13 -147 2 -49 10 -111 28 -139 42
-27 14 -52 22 -55 19 -9 -9 34 -41 91 -68 26 -12 47 -25 47 -29 0 -18 -108
-100 -157 -118 -109 -41 -222 -50 -309 -24 -17 4 -33 -6 -74 -46 -61 -61 -90
-73 -151 -65 -99 14 -141 68 -142 185 -2 115 71 213 201 272 73 33 174 57 242
58 33 0 41 3 30 10 -30 19 -172 11 -261 -15 -78 -23 -85 -23 -94 -8 -5 10 -35
44 -65 77 -89 96 -193 129 -277 89 -48 -23 -87 -85 -88 -139 0 -37 -3 -44 -23
-49 -13 -3 -38 -3 -56 0 -44 9 -71 64 -102 215 -34 163 -40 294 -20 400 30
162 113 426 167 532 64 128 188 288 345 448 99 100 169 152 283 209 45 23 81
44 79 47 -3 2 -27 -3 -54 -11 -27 -8 -51 -15 -53 -15 -9 0 9 139 24 185 27 79
99 227 143 291 61 90 235 273 350 368 56 47 166 128 245 180 145 97 196 120
422 189 122 37 378 75 585 87 69 3 120 7 113 8 -6 1 -17 3 -25 5 -7 2 -92 1
-188 -3z m-1949 -3010 c44 -23 129 -106 129 -126 0 -9 -19 -38 -42 -65 l-42
-50 -18 35 c-15 30 -24 36 -50 36 l-31 0 22 24 c33 35 21 75 -35 125 -24 21
-44 42 -44 46 0 11 70 -5 111 -25z m-281 -180 c0 -15 -46 -34 -64 -27 -9 4
-16 13 -16 22 0 11 11 15 40 15 22 0 40 -5 40 -10z m1000 -1081 c0 -19 -39
-164 -54 -200 -12 -30 -32 -135 -50 -263 -8 -56 11 -174 33 -210 11 -18 22
-61 26 -102 l7 -71 -96 -11 c-388 -48 -682 -33 -951 49 -128 39 -158 57 -224
134 -69 79 -90 120 -90 170 l0 40 22 -26 c27 -30 76 -63 85 -55 3 4 -8 21 -25
39 -35 36 -53 89 -43 127 8 32 27 35 85 16 25 -9 60 -16 77 -16 26 0 29 2 18
15 -7 8 -29 20 -49 26 -21 6 -48 19 -61 29 -23 17 -23 19 -7 43 43 66 199 96
323 62 36 -10 114 -38 172 -62 154 -64 164 -66 294 -61 108 5 122 8 190 40 44
21 95 57 129 89 65 63 150 162 163 190 10 21 26 26 26 8z m251 -1366 c102
-117 231 -189 414 -234 224 -55 380 -62 563 -23 28 6 32 4 32 -14 0 -22 -62
-77 -148 -131 -70 -45 -61 -69 17 -45 78 24 -76 -72 -212 -132 -98 -43 -183
-52 -353 -35 -144 13 -199 34 -239 88 -32 45 -50 55 -40 23 10 -32 -11 -24
-77 33 -49 41 -67 64 -80 102 -23 67 -22 165 2 260 18 71 59 145 79 145 5 0
24 -17 42 -37z m-145 -509 c-11 -7 -22 -11 -25 -8 -3 3 3 12 13 20 11 7 22 11
25 8 3 -3 -3 -12 -13 -20z m2851 -26 c-3 -8 -6 -5 -6 6 -1 11 2 17 5 13 3 -3
4 -12 1 -19z m-172 -108 c3 -5 -3 -10 -14 -10 -12 0 -21 5 -21 10 0 6 6 10 14
10 8 0 18 -4 21 -10z m-87 -175 c-3 -3 -9 2 -12 12 -6 14 -5 15 5 6 7 -7 10
-15 7 -18z"/>
<path d="M797 2623 c-24 -24 38 -134 84 -148 36 -12 33 3 -15 57 -26 29 -46
63 -46 75 0 23 -10 30 -23 16z"/>
<path d="M3340 7176 c0 -2 8 -10 18 -17 15 -13 16 -12 3 4 -13 16 -21 21 -21
13z"/>
<path d="M4374 6949 c-189 -31 -465 -161 -674 -316 -81 -59 -453 -399 -462
-422 -3 -9 -177 -132 -290 -206 -148 -96 -198 -126 -235 -139 -37 -13 -57 -36
-30 -36 7 0 40 9 73 21 35 12 90 22 134 23 80 3 201 39 370 111 47 20 109 40
139 45 61 11 177 62 245 109 25 17 47 31 50 31 6 0 217 130 316 195 143 94
428 360 462 432 11 24 24 46 29 49 25 15 -3 99 -36 108 -23 7 -23 7 -91 -5z"/>
<path d="M1863 4971 c-47 -22 -70 -52 -75 -96 -3 -35 24 -44 30 -10 6 31 23
46 77 71 31 15 69 24 99 24 42 0 47 2 36 15 -18 22 -115 19 -167 -4z"/>
<path d="M839 4651 c-37 -37 -49 -61 -31 -61 5 0 17 10 28 21 26 30 75 49 124
49 40 0 53 13 24 24 -9 3 -36 6 -61 6 -39 0 -50 -5 -84 -39z"/>
<path d="M2306 4609 l-47 -42 -42 24 c-35 20 -55 24 -113 22 -150 -3 -259
-103 -256 -233 2 -62 17 -181 33 -252 13 -55 30 -60 89 -28 19 11 60 31 90 46
73 36 203 123 264 177 l49 43 -14 37 c-13 36 -12 38 24 75 48 49 47 59 -3 31
-38 -22 -40 -22 -60 -4 -26 23 -25 28 8 78 16 23 32 48 36 55 14 24 -12 11
-58 -29z m-112 -55 c61 -31 110 -91 128 -158 13 -48 13 -48 -17 -72 -17 -13
-32 -24 -35 -24 -3 0 -14 14 -23 30 -14 23 -25 30 -48 30 -29 0 -30 2 -24 30
8 35 -5 59 -67 127 -28 29 -36 44 -27 47 8 2 21 7 29 9 26 9 32 8 84 -19z"/>
<path d="M2722 4435 c-113 -53 -336 -216 -362 -266 -9 -15 -7 -21 5 -25 17 -7
69 33 177 134 38 34 109 90 160 122 99 64 105 75 20 35z"/>
<path d="M2850 4264 c-142 -31 -216 -61 -327 -133 -73 -47 -91 -67 -74 -84 11
-11 36 2 98 49 64 49 194 109 306 140 53 15 94 31 91 36 -6 10 -13 9 -94 -8z"/>
<path d="M1480 3986 c-63 -18 -107 -42 -126 -71 -35 -54 2 -96 101 -116 86
-16 109 -5 146 75 29 62 30 66 14 95 -13 27 -21 31 -53 30 -20 0 -57 -6 -82
-13z"/>
<path d="M4655 2849 c-46 -27 -95 -72 -95 -86 0 -9 19 2 50 30 74 67 153 72
231 16 39 -28 35 -4 -4 25 -33 24 -150 34 -182 15z"/>
<path d="M4930 2762 c0 -4 20 -18 44 -30 65 -31 101 -95 92 -163 -7 -48 -6
-49 17 -44 20 6 25 1 35 -33 7 -22 12 -53 12 -70 0 -49 -37 -136 -70 -166 -21
-18 -30 -35 -30 -57 0 -39 -20 -76 -62 -115 -45 -43 -67 -52 -108 -47 -30 3
-32 2 -16 -8 61 -38 172 38 204 141 9 30 31 74 48 97 57 76 70 197 27 260 -14
20 -26 48 -28 62 -9 70 -51 128 -117 162 -41 21 -48 23 -48 11z"/>
<path d="M2557 2557 c-33 -17 -74 -31 -93 -31 -44 0 -39 -18 10 -31 20 -6 37
-15 36 -20 -2 -18 -74 -37 -162 -42 -79 -5 -89 -4 -115 17 -25 19 -28 20 -31
5 -2 -9 1 -22 7 -28 17 -17 13 -37 -7 -37 -53 0 -121 32 -180 86 -65 58 -81
57 -36 -2 63 -82 220 -153 280 -125 15 7 24 17 21 25 -4 10 12 15 66 18 80 6
166 35 212 72 l30 24 -27 11 c-16 6 -28 13 -28 16 0 2 17 13 38 24 44 22 73
52 51 50 -8 0 -40 -15 -72 -32z"/>
<path d="M1702 847 c-8 -9 -11 -25 -7 -38 10 -29 27 -9 23 26 -3 25 -4 27 -16
12z"/>
<path d="M1682 508 c-1 -60 44 -131 100 -157 24 -11 56 -29 73 -40 16 -11 50
-23 75 -27 25 -3 77 -19 117 -35 102 -41 158 -37 268 23 40 22 82 99 90 168 4
30 14 60 22 66 11 9 -58 12 -284 11 -242 0 -312 3 -373 16 -41 10 -78 17 -81
17 -4 0 -7 -19 -7 -42z m59 -80 c11 -21 11 -22 -4 -9 -10 7 -17 17 -17 22 0
15 9 10 21 -13z"/>
<path d="M4300 470 c0 -5 7 -10 16 -10 8 0 12 5 9 10 -3 6 -10 10 -16 10 -5 0
-9 -4 -9 -10z"/>
</g>
</svg>
